# xmcd
#
# Track frame offsets:
#	150
#	21063
#	39443
#	57497
#	69652
#
# Disc length: 1106 seconds
#
# Revision: 0
# Processed by: cddbd v1.5.1PL0 Copyright (c) Steve Scherf et al.
# Submitted via: audiograbber 1.80
#
DISCID=3e045005
DTITLE=The Hounded Prisoners - Demo
DYEAR=1900
DGENRE=
TTITLE0=Demion Dancing Queen
TTITLE1=It's Not A Good Day To Die
TTITLE2=Deeper Than Your Gravehole
TTITLE3=Vampire Girl
TTITLE4=Sex Dream Lady
EXTD=
EXTT0=
EXTT1=
EXTT2=
EXTT3=
EXTT4=
PLAYORDER=
